<?xml version="1.0" encoding="UTF-8"?>
<svg xmlns="http://www.w3.org/2000/svg" xmlns:xlink="http://www.w3.org/1999/xlink" width="150px" height="150px" viewBox="0 0 150 150" version="1.1">
<g id="surface1">
<path style=" stroke:none;fill-rule:nonzero;fill:rgb(0%,0%,0%);fill-opacity:1;" d="M 43.125 14.0625 L 76.875 14.0625 C 77.90625 14.0625 78.75 15.117188 78.75 16.40625 L 78.75 28.125 L 41.25 28.125 L 41.25 16.40625 C 41.25 15.117188 42.09375 14.0625 43.125 14.0625 Z M 30 16.40625 L 30 28.125 L 15 28.125 C 6.726562 28.125 0 36.53125 0 46.875 L 0 75 L 84.421875 75 C 91.992188 63.546875 103.429688 56.25 116.25 56.25 C 117.515625 56.25 118.757812 56.308594 120 56.453125 L 120 46.875 C 120 36.53125 113.273438 28.125 105 28.125 L 90 28.125 L 90 16.40625 C 90 7.351562 84.117188 0 76.875 0 L 43.125 0 C 35.882812 0 30 7.351562 30 16.40625 Z M 75 103.125 L 52.5 103.125 C 48.351562 103.125 45 98.9375 45 93.75 L 45 84.375 L 0 84.375 L 0 121.875 C 0 132.21875 6.726562 140.625 15 140.625 L 84.421875 140.625 C 78.539062 131.71875 75 120.265625 75 107.8125 C 75 106.230469 75.046875 104.679688 75.164062 103.125 Z M 150 107.8125 C 150 84.511719 134.890625 65.625 116.25 65.625 C 97.609375 65.625 82.5 84.511719 82.5 107.8125 C 82.5 131.113281 97.609375 150 116.25 150 C 134.890625 150 150 131.113281 150 107.8125 Z M 116.25 84.375 C 118.3125 84.375 120 86.484375 120 89.0625 L 120 103.125 L 127.5 103.125 C 129.5625 103.125 131.25 105.234375 131.25 107.8125 C 131.25 110.390625 129.5625 112.5 127.5 112.5 L 116.25 112.5 C 114.1875 112.5 112.5 110.390625 112.5 107.8125 L 112.5 89.0625 C 112.5 86.484375 114.1875 84.375 116.25 84.375 Z M 116.25 84.375 "/>
</g>
</svg>
