<?xml version="1.0" encoding="UTF-8"?>
<svg xmlns="http://www.w3.org/2000/svg" xmlns:xlink="http://www.w3.org/1999/xlink" width="150px" height="150px" viewBox="0 0 150 150" version="1.1">
<g id="surface1">
<path style=" stroke:none;fill-rule:nonzero;fill:rgb(0%,0%,0%);fill-opacity:1;" d="M 32.144531 0 C 14.398438 0 0 12.597656 0 28.125 L 0 121.875 C 0 137.402344 14.398438 150 32.144531 150 L 139.285156 150 C 145.210938 150 150 145.8125 150 140.625 C 150 135.4375 145.210938 131.25 139.285156 131.25 L 139.285156 112.5 C 145.210938 112.5 150 108.3125 150 103.125 L 150 9.375 C 150 4.1875 145.210938 0 139.285156 0 Z M 32.144531 112.5 L 117.855469 112.5 L 117.855469 131.25 L 32.144531 131.25 C 26.214844 131.25 21.429688 127.0625 21.429688 121.875 C 21.429688 116.6875 26.214844 112.5 32.144531 112.5 Z M 42.855469 42.1875 C 42.855469 39.609375 45.269531 37.5 48.214844 37.5 L 112.5 37.5 C 115.445312 37.5 117.855469 39.609375 117.855469 42.1875 C 117.855469 44.765625 115.445312 46.875 112.5 46.875 L 48.214844 46.875 C 45.269531 46.875 42.855469 44.765625 42.855469 42.1875 Z M 48.214844 56.25 L 112.5 56.25 C 115.445312 56.25 117.855469 58.359375 117.855469 60.9375 C 117.855469 63.515625 115.445312 65.625 112.5 65.625 L 48.214844 65.625 C 45.269531 65.625 42.855469 63.515625 42.855469 60.9375 C 42.855469 58.359375 45.269531 56.25 48.214844 56.25 Z M 48.214844 56.25 "/>
</g>
</svg>
